<?xml version="1.0" encoding="utf-8"?>
<!-- Generator: Adobe Illustrator 25.2.0, SVG Export Plug-In . SVG Version: 6.00 Build 0)  -->
<svg version="1.1" id="Layer_1" xmlns="http://www.w3.org/2000/svg" xmlns:xlink="http://www.w3.org/1999/xlink" x="0px" y="0px"
	 viewBox="0 0 177 24" style="enable-background:new 0 0 177 24;" xml:space="preserve">
<style type="text/css">
	.st0{clip-path:url(#SVGID_2_);}
	.st1{fill:#D72228;}
	.st2{fill:#FFFFFF;}
</style>
<g>
	<defs>
		<rect id="SVGID_1_" width="177" height="24"/>
	</defs>
	<clipPath id="SVGID_2_">
		<use xlink:href="#SVGID_1_"  style="overflow:visible;"/>
	</clipPath>
	<g class="st0">
		<path class="st1" d="M72.9,20V0h-5.8v0.6c2.1,0.2,2.8,0.8,2.8,2.3v17c0,2-0.6,2.8-2,2.8c-1.6,0-2.2-0.8-2.2-2.8v-7.1
			c0-3.7-1.9-5.6-5.7-5.6c-3.1,0-5.8,1.2-5.9,3.5c0,1.1,0.5,1.9,1.6,1.9s1.5-0.8,1.5-1.7c0-2.1,0.7-2.9,2.6-2.9
			c1.8,0,2.8,0.8,2.8,3.9c0,1-0.3,1.2-3,2.2C55.2,15.9,53,17,53,19.9c0,2.6,1.8,3.9,4.8,3.9c2.5,0,4.1-0.8,4.9-2.8
			c0.3,1.7,1.1,2.5,2.9,2.5h10.2v-0.6C73.5,22.7,72.9,22.1,72.9,20z M62.6,18.3c0,2.1-1.4,4.3-3.8,4.3c-1.6,0-2.6-1-2.6-3
			c0-2.6,1.3-3.8,4.2-4.9c1.1-0.4,1.8-0.7,2.2-0.9C62.6,13.9,62.6,18.3,62.6,18.3z M39.1,9c0,0.9-0.5,1.8-1.5,1.8
			c-1.1,0-1.2-1.2-2.3-1.2c-1.6,0-3.2,3.6-3.2,6.5v4.2c0,1.7,0.7,2.4,3,2.6v0.6h-8.7v-0.6c2-0.3,2.7-1.1,2.7-2.8v-9.4
			c0-1.6-0.5-2.1-2.6-2.5V7.6h5.6L32,12h0.3c0.9-2.6,2.7-4.7,4.8-4.7C38.4,7.3,39.1,8,39.1,9z M46,7.3c-4.3,0-7.1,3.1-7.1,8.5
			s2.5,7.9,6.8,7.9c2.9,0,4.8-1.1,5.8-3.9L51,19.6c-0.9,2.1-2.4,3.1-4.6,3.1c-3,0-3.9-2.4-3.9-7.5v-0.4h9.3v-1.5
			C51.8,9.4,49.6,7.3,46,7.3z M48.6,14h-6.2c0.2-4.1,1.3-5.9,3.3-5.9c1.8,0,2.7,1.7,2.8,5C48.6,13.1,48.6,14,48.6,14z"/>
		<path d="M85.4,22l0.3,0.6c-1.1,0.7-2.4,1.1-4,1.1c-2.6,0-4.2-1.2-4.2-3.8V8.4h-2.4V7.8c2.4-0.7,4.3-2.6,4.9-5.2h0.6v4.9h5v0.8h-5
			v11.1c0,2.2,0.7,3,2.6,3C84.1,22.5,84.8,22.3,85.4,22C85.4,22,85.4,22,85.4,22z M170.2,20.2v-7.9c0-3.4-1.7-5.1-4.8-5.1
			c-2.7,0-4.1,1.2-4.7,3.6h-0.2c-0.2-2.4-1.7-3.6-4.5-3.6s-4.2,1.2-4.8,3.6H151l0-3.3h-5.5v0.6c2,0.3,2.6,0.8,2.6,2.4v9.5
			c0,1.7-0.7,2.4-2.7,2.8v0.6h7.9v-0.6c-1.6-0.3-2.2-1-2.2-2.7V16c0-5,1.4-7.6,4.1-7.6c1.6,0,2.4,1,2.4,3.1v8.6
			c0,1.7-0.5,2.4-2.1,2.7v0.6h7.3v-0.6c-1.6-0.3-2.1-1-2.1-2.7V16c0-5,1.4-7.6,4.1-7.6c1.7,0,2.4,1.1,2.4,3.2v8.6
			c0,1.7-0.6,2.4-2.1,2.7v0.6h7.5v-0.6C170.8,22.6,170.2,21.9,170.2,20.2L170.2,20.2L170.2,20.2z M145.1,15.5c0,4.9-3,8.3-7.5,8.3
			s-7.6-3.3-7.6-8.3s3-8.2,7.5-8.2S145.1,10.6,145.1,15.5L145.1,15.5z M141.6,15.5c0-5.1-1.2-7.4-4-7.4s-4.1,2.3-4.1,7.4
			s1.3,7.4,4.1,7.4S141.6,20.6,141.6,15.5z M123.8,22.7c-2.9,0-4.3-2.3-4.3-7.3s1.4-7.3,3.9-7.3c1.5,0,2.2,0.8,2.2,2.6
			c0,1.6,0.6,2.4,1.7,2.4c1,0,1.5-0.7,1.5-1.9c-0.1-2.5-2.7-3.9-5.6-3.9c-4.4,0-7.2,3.1-7.2,8.4s2.5,8.1,7.2,8.1c3,0,4.7-1.2,6-3.9
			l-0.7-0.4C127.3,21.7,125.7,22.7,123.8,22.7C123.8,22.7,123.8,22.7,123.8,22.7z M100,15.5c0,4.9-3,8.3-7.5,8.3S85,20.5,85,15.5
			s3-8.2,7.6-8.2S100,10.6,100,15.5z M96.5,15.5c0-5.1-1.2-7.4-4-7.4s-4,2.3-4,7.4s1.3,7.4,4,7.4C95.2,22.9,96.5,20.6,96.5,15.5z
			 M113.4,9c0-1-0.7-1.7-2-1.7c-2.2,0-4.1,2.1-5,4.7h-0.3l0.1-4.4h-5.6v0.6c2.1,0.4,2.6,0.9,2.6,2.5v9.4c0,1.7-0.7,2.4-2.7,2.8v0.6
			h8.7v-0.6c-2.3-0.3-3-0.9-3-2.6V16c0-2.9,1.7-6.5,3.4-6.5c1.1,0,1.2,1.2,2.3,1.2C112.9,10.8,113.4,9.9,113.4,9z M113.1,20.3
			c-1,0-1.7,0.7-1.7,1.7s0.7,1.7,1.7,1.7s1.7-0.7,1.7-1.7S114,20.3,113.1,20.3z M174.2,7c-1.4,0-2.5,1.1-2.5,2.5
			c0,1.4,1.1,2.5,2.5,2.5s2.5-1.1,2.5-2.5S175.6,7,174.2,7z M174.2,11.5c-1.2,0-2-0.9-2-2s0.9-2.1,2-2.1c1.1,0,2,0.9,2,2.1
			S175.3,11.5,174.2,11.5z"/>
		<path d="M175.3,9c0-0.5-0.4-0.8-1-0.8h-1v2.5h0.5V9.9h0.4l0.5,0.8h0.6l-0.6-0.9C175.1,9.7,175.3,9.4,175.3,9L175.3,9z M174.3,9.5
			h-0.5V8.6h0.5c0.3,0,0.5,0.1,0.5,0.4S174.6,9.5,174.3,9.5z"/>
		<path class="st1" d="M22.9,13.4L11.9,2L0.8,13.4h3.4v10.1h15.4V13.4H22.9z"/>
		<path class="st2" d="M11.9,13.5h0.2c0.8-2,2.2-3.3,3.4-3.3c0.9,0,1.5,0.6,1.5,1.6c0,0.8-0.5,1.4-1.1,1.4c-0.4,0-0.6-0.2-0.9-0.4
			c-0.2-0.2-0.4-0.5-0.8-0.5c-1.1,0-2.2,2.3-2.2,4.2v1.8c0,1.6,0.4,1.9,2.2,2.2v0.6H7.5v-0.5c1.6-0.2,2.1-0.7,2.1-2.2v-5.4
			c0-1.1-0.5-1.6-2-1.8v-0.5h4.3L11.9,13.5L11.9,13.5z"/>
	</g>
</g>
</svg>
